<svg xmlns="http://www.w3.org/2000/svg" viewBox="0 0 48 48">
  <path fill="#2395ec" d="M47.527,19.847c-0.13-0.102-1.345-1.007-3.908-1.007c-0.677,0-1.357,0.053-2.023,0.157 c-0.496-3.354-3.305-4.969-3.441-5.052l-0.688-0.398l-0.449,0.658c-0.567,0.884-1.02,1.858-1.275,2.876 c-0.483,1.924-0.189,3.73,0.843,5.28c-1.222,0.687-3.207,0.856-3.626,0.871l-34.95,0.003h-0.1 c-0.453,0.009-1.619,0.048-2.484,0.679c-0.592,0.432-0.93,0.99-1.075,1.662l-0.046,0.213c-0.061,0.328-0.138,0.836-0.219,1.42 c-0.157,1.119-0.317,2.393-0.328,2.469c0.03,0.126,0.289,1.255,1.564,2.308c1.004,0.827,2.338,1.246,3.972,1.246 c0.972,0,1.892-0.133,2.742-0.291c1.342-0.25,2.489-0.629,3.576-1.017c0.607-0.216,1.195-0.425,1.771-0.601 c2.905-0.885,5.988-1.278,9.155-1.278c2.106,0,4.197,0.212,6.222,0.632c3.395,0.702,6.699,2.058,9.193,3.784 c2.83,1.962,5.729,2.958,8.601,2.958c0.009,0,0.015,0,0.023,0c3.491-0.001,6.619-1.308,8.325-3.473 c1.173-1.486,1.467-3.175,1.538-4.032C48.713,23.579,48.089,20.414,47.527,19.847z"/>
  <path fill="#2395ec" d="M8.293,23.264h3.71c0.177,0,0.321-0.144,0.321-0.321v-3.337c0-0.177-0.144-0.321-0.321-0.321H8.293 c-0.177,0-0.321,0.144-0.321,0.321v3.337C7.972,23.12,8.116,23.264,8.293,23.264z"/>
  <path fill="#2395ec" d="M12.952,23.264h3.71c0.177,0,0.321-0.144,0.321-0.321v-3.337c0-0.177-0.144-0.321-0.321-0.321h-3.71 c-0.177,0-0.321,0.144-0.321,0.321v3.337C12.631,23.12,12.775,23.264,12.952,23.264z"/>
  <path fill="#2395ec" d="M17.744,23.264h3.71c0.177,0,0.321-0.144,0.321-0.321v-3.337c0-0.177-0.144-0.321-0.321-0.321h-3.71 c-0.177,0-0.321,0.144-0.321,0.321v3.337C17.423,23.12,17.567,23.264,17.744,23.264z"/>
  <path fill="#2395ec" d="M22.404,23.264h3.71c0.177,0,0.321-0.144,0.321-0.321v-3.337c0-0.177-0.144-0.321-0.321-0.321h-3.71 c-0.177,0-0.321,0.144-0.321,0.321v3.337C22.083,23.12,22.227,23.264,22.404,23.264z"/>
  <path fill="#2395ec" d="M17.744,18.603h3.71c0.177,0,0.321-0.144,0.321-0.321v-3.337c0-0.177-0.144-0.321-0.321-0.321h-3.71 c-0.177,0-0.321,0.144-0.321,0.321v3.337C17.423,18.459,17.567,18.603,17.744,18.603z"/>
  <path fill="#2395ec" d="M22.404,18.603h3.71c0.177,0,0.321-0.144,0.321-0.321v-3.337c0-0.177-0.144-0.321-0.321-0.321h-3.71 c-0.177,0-0.321,0.144-0.321,0.321v3.337C22.083,18.459,22.227,18.603,22.404,18.603z"/>
  <path fill="#2395ec" d="M27.064,23.264h3.71c0.177,0,0.321-0.144,0.321-0.321v-3.337c0-0.177-0.144-0.321-0.321-0.321h-3.71 c-0.177,0-0.321,0.144-0.321,0.321v3.337C26.743,23.12,26.887,23.264,27.064,23.264z"/>
  <path fill="#2395ec" d="M12.952,18.603h3.71c0.177,0,0.321-0.144,0.321-0.321v-3.337c0-0.177-0.144-0.321-0.321-0.321h-3.71 c-0.177,0-0.321,0.144-0.321,0.321v3.337C12.631,18.459,12.775,18.603,12.952,18.603z"/>
</svg>
