<svg xmlns="http://www.w3.org/2000/svg" viewBox="0 0 48 48">
  <path fill="#e535ab" d="M24.5,45.161L7,34.82V14.18L24.5,3.839L42,14.18V34.82L24.5,45.161z M9,33.68l15.5,9.159L40,33.68 V15.32L24.5,6.161L9,15.32V33.68z"/>
  <path fill="#e535ab" d="M24.5,44.88l-17-9.82V11.94l17-9.82l17,9.82v23.12L24.5,44.88z M9.5,33.92l15,8.67l15-8.67v-20.84l-15-8.67 l-15,8.67V33.92z"/>
  <path fill="#e535ab" d="M24.5,44.88l-17-9.82V11.94l17-9.82l17,9.82v23.12L24.5,44.88z M9.5,33.92l15,8.67l15-8.67v-20.84l-15-8.67 l-15,8.67V33.92z"/>
  <path fill="#e535ab" d="M24.5,25c-2.757,0-5-2.243-5-5s2.243-5,5-5s5,2.243,5,5S27.257,25,24.5,25z M24.5,17c-1.654,0-3,1.346-3,3 s1.346,3,3,3s3-1.346,3-3S26.154,17,24.5,17z"/>
  <path fill="#e535ab" d="M24.5,40c-2.757,0-5-2.243-5-5s2.243-5,5-5s5,2.243,5,5S27.257,40,24.5,40z M24.5,32c-1.654,0-3,1.346-3,3 s1.346,3,3,3s3-1.346,3-3S26.154,32,24.5,32z"/>
  <path fill="#e535ab" d="M37.5,33c-2.757,0-5-2.243-5-5s2.243-5,5-5s5,2.243,5,5S40.257,33,37.5,33z M37.5,25c-1.654,0-3,1.346-3,3 s1.346,3,3,3s3-1.346,3-3S39.154,25,37.5,25z"/>
  <path fill="#e535ab" d="M11.5,33c-2.757,0-5-2.243-5-5s2.243-5,5-5s5,2.243,5,5S14.257,33,11.5,33z M11.5,25c-1.654,0-3,1.346-3,3 s1.346,3,3,3s3-1.346,3-3S13.154,25,11.5,25z"/>
  <path fill="#e535ab" d="M37.5,18c-2.757,0-5-2.243-5-5s2.243-5,5-5s5,2.243,5,5S40.257,18,37.5,18z M37.5,10c-1.654,0-3,1.346-3,3 s1.346,3,3,3s3-1.346,3-3S39.154,10,37.5,10z"/>
  <path fill="#e535ab" d="M11.5,18c-2.757,0-5-2.243-5-5s2.243-5,5-5s5,2.243,5,5S14.257,18,11.5,18z M11.5,10c-1.654,0-3,1.346-3,3 s1.346,3,3,3s3-1.346,3-3S13.154,10,11.5,10z"/>
</svg>
