<svg xmlns="http://www.w3.org/2000/svg" viewBox="0 0 48 48">
  <path fill="#0277bd" d="M24,4C13.5,4,6.1,10.1,6.1,17.5c0,4.5,2.8,8.5,7.1,11c1.4,0.9,2.9,1.6,4.5,2.1c1.4,0.5,2.9,0.8,4.5,0.9 c0.4,0.1,0.8,0.1,1.2,0.1c0.4,0,0.8,0,1.2-0.1c1.6-0.2,3.1-0.5,4.5-0.9c1.6-0.5,3.1-1.2,4.5-2.1c4.3-2.5,7.1-6.5,7.1-11 C41.9,10.1,34.5,4,24,4z"/>
  <path fill="#0277bd" d="M24,44c-4.5,0-8.6-1.6-11.8-4.3c-1.2-1-2.2-2.1-3-3.4c-0.4-0.6-0.7-1.2-1-1.9c-0.3-0.7-0.5-1.4-0.7-2.1 c-0.2-0.7-0.3-1.4-0.3-2.2c0-0.8,0.1-1.5,0.3-2.2c0.2-0.7,0.4-1.4,0.7-2.1c0.3-0.7,0.6-1.3,1-1.9c0.8-1.3,1.8-2.4,3-3.4 C15.4,17.6,19.5,16,24,16c4.5,0,8.6,1.6,11.8,4.3c1.2,1,2.2,2.1,3,3.4c0.4,0.6,0.7,1.2,1,1.9c0.3,0.7,0.5,1.4,0.7,2.1 c0.2,0.7,0.3,1.4,0.3,2.2c0,0.8-0.1,1.5-0.3,2.2c-0.2,0.7-0.4,1.4-0.7,2.1c-0.3,0.7-0.6,1.3-1,1.9c-0.8,1.3-1.8,2.4-3,3.4 C32.6,42.4,28.5,44,24,44z"/>
  <path fill="#fff" d="M23,32.9c-4.2-0.3-7.9-1.9-10.3-4.3c-0.8-0.8-1.5-1.7-2-2.7c-0.5-1-0.9-2-1.1-3.1c-0.2-1.1-0.2-2.2,0-3.3 c0.2-1.1,0.6-2.1,1.1-3.1c0.5-1,1.2-1.9,2-2.7c2.4-2.4,6.1-4,10.3-4.3"/>
  <path fill="#fff" d="M25,32.9c4.2-0.3,7.9-1.9,10.3-4.3c0.8-0.8,1.5-1.7,2-2.7c0.5-1,0.9-2,1.1-3.1c0.2-1.1,0.2-2.2,0-3.3 c-0.2-1.1-0.6-2.1-1.1-3.1c-0.5-1-1.2-1.9-2-2.7c-2.4-2.4-6.1-4-10.3-4.3"/>
  <path fill="#fff" d="M34.3,23.9c0-1.7-1.4-3.1-3.1-3.1c-1.7,0-3.1,1.4-3.1,3.1c0,1.7,1.4,3.1,3.1,3.1 C32.9,27,34.3,25.6,34.3,23.9z"/>
  <path fill="#fff" d="M19.9,23.9c0-1.7-1.4-3.1-3.1-3.1c-1.7,0-3.1,1.4-3.1,3.1c0,1.7,1.4,3.1,3.1,3.1 C18.5,27,19.9,25.6,19.9,23.9z"/>
  <path fill="#0277bd" d="M24,4c-2.7,0-5.2,0.5-7.4,1.3c-2.2,0.8-4.1,2-5.7,3.5c-1.6,1.5-2.8,3.3-3.6,5.3c-0.8,2-1.2,4.2-1.2,6.4 c0,2.2,0.4,4.4,1.2,6.4c0.8,2,2,3.8,3.6,5.3c1.6,1.5,3.5,2.7,5.7,3.5c2.2,0.8,4.7,1.3,7.4,1.3s5.2-0.5,7.4-1.3 c2.2-0.8,4.1-2,5.7-3.5c1.6-1.5,2.8-3.3,3.6-5.3c0.8-2,1.2-4.2,1.2-6.4c0-2.2-0.4-4.4-1.2-6.4c-0.8-2-2-3.8-3.6-5.3 c-1.6-1.5-3.5-2.7-5.7-3.5C29.2,4.5,26.7,4,24,4z M24,6c2.4,0,4.7,0.4,6.7,1.2c2,0.8,3.8,1.8,5.2,3.2c1.5,1.4,2.6,3,3.3,4.8 c0.7,1.8,1.1,3.8,1.1,5.8c0,2-0.4,4-1.1,5.8c-0.7,1.8-1.9,3.4-3.3,4.8c-1.5,1.4-3.2,2.4-5.2,3.2C28.7,35.6,26.4,36,24,36 s-4.7-0.4-6.7-1.2c-2-0.8-3.8-1.8-5.2-3.2c-1.5-1.4-2.6-3-3.3-4.8c-0.7-1.8-1.1-3.8-1.1-5.8c0-2,0.4-4,1.1-5.8 c0.7-1.8,1.9-3.4,3.3-4.8c1.5-1.4,3.2-2.4,5.2-3.2C19.3,6.4,21.6,6,24,6z"/>
</svg>
